<svg xmlns="http://www.w3.org/2000/svg" xmlns:xlink="http://www.w3.org/1999/xlink" version="1.1" x="0px" y="0px" viewBox="0 0 128 160" fill="white"><path d="M86.706,24.036H46.262c-6.943,0-12.592,5.648-12.592,12.592v70.744c0,6.943,5.648,12.592,12.592,12.592h51.559  c6.943,0,12.592-5.648,12.592-12.592V50.533L86.706,24.036z M88.364,34.889l12.339,13.79H88.364V34.889z M97.821,113.964H46.262  c-3.635,0-6.592-2.957-6.592-6.592V36.628c0-3.635,2.957-6.592,6.592-6.592h36.102v24.643h22.049v52.693  C104.413,111.007,101.456,113.964,97.821,113.964z"/><path d="M82.232,87.22c1.639-2.727,2.599-5.905,2.599-9.312c0-10.013-8.146-18.158-18.157-18.158  c-10.012,0-18.157,8.146-18.157,18.158c0,10.012,8.146,18.157,18.157,18.157c3.655,0,7.055-1.095,9.907-2.961l8.521,8.523  c0.797,0.796,1.842,1.193,2.885,1.193s2.088-0.397,2.885-1.193c1.592-1.594,1.592-4.176,0-5.769L82.232,87.22z M54.517,77.908  c0-6.704,5.454-12.158,12.157-12.158s12.157,5.454,12.157,12.158c0,6.703-5.453,12.157-12.157,12.157S54.517,84.611,54.517,77.908z"/></svg>
