<?xml version="1.0" encoding="UTF-8" standalone="no"?><!DOCTYPE svg PUBLIC "-//W3C//DTD SVG 1.1//EN" "http://www.w3.org/Graphics/SVG/1.1/DTD/svg11.dtd"><svg width="100%" height="100%" viewBox="0 0 24 24" version="1.1" xmlns="http://www.w3.org/2000/svg" xmlns:xlink="http://www.w3.org/1999/xlink" xml:space="preserve" style="fill-rule:evenodd;clip-rule:evenodd;stroke-linejoin:round;stroke-miterlimit:1.41421;"><g id="Style_2_copy_4"><path d="M11.983,0.034c-6.618,0 -11.983,5.364 -11.983,11.983c0,6.618 5.365,11.983 11.983,11.983c6.619,0 11.983,-5.365 11.983,-11.983c0,-6.619 -5.364,-11.983 -11.983,-11.983Zm-2.325,8.317l-3.981,-1.99l-0.252,-0.126c-0.036,-0.018 -0.07,-0.027 -0.101,-0.027c-0.045,0 -0.082,0.017 -0.109,0.049c-0.026,0.032 -0.041,0.077 -0.041,0.133l0,9.085c0,0.154 0.113,0.337 0.251,0.406l3.911,1.956c0.055,0.027 0.107,0.04 0.153,0.04c0.132,0 0.224,-0.102 0.224,-0.274l0,-9.162c0.001,-0.038 -0.021,-0.073 -0.055,-0.09Zm4.957,7.583l3.8,1.9c0.208,0.103 0.378,-0.002 0.378,-0.233l0,-8.456l-4.178,6.789Zm-4.5,-6.903l0,4.656l4.138,2.069l-4.138,-6.725Zm8.578,-0.702l-4.314,-2.157c-0.019,-0.01 -0.041,-0.014 -0.062,-0.015c-0.002,0 -0.003,-0.001 -0.005,-0.001c-0.052,0 -0.104,0.026 -0.132,0.072l-2.659,4.321l2.968,4.823l4.246,-6.899c0.031,-0.05 0.012,-0.117 -0.042,-0.144Z"/></g></svg>